<svg id="Layer_1" enable-background="new 0 0 512 512" height="512" viewBox="0 0 512 512" width="512" xmlns="http://www.w3.org/2000/svg"><g><g id="XMLID_19_"><g id="XMLID_25_"><g id="XMLID_34_"><g id="XMLID_53_"><g id="XMLID_57_"><g id="XMLID_59_"><g id="XMLID_60_"><g id="XMLID_81_"><g id="XMLID_82_"><g id="XMLID_109_"><g id="XMLID_134_"><g id="XMLID_138_"><g id="XMLID_141_"><g id="XMLID_172_"><circle id="XMLID_176_" cx="256" cy="256" fill="#ff405c" r="256"/></g></g></g></g></g></g></g></g></g></g></g></g></g></g><path d="m512 256c0-12.959-.972-25.691-2.83-38.133l-104.048-104.047s-136.077-72.479-224.122-28.153c-88.045 44.325-125.667 165.333-125.667 165.333l180.201 179.812c-12.76-1.478-30.66-3.937-30.66-3.937l-115.993-115.528 24.401 93.238 104.585 104.585c12.442 1.858 25.174 2.83 38.133 2.83 141.385 0 256-114.615 256-256z" fill="#d01273"/><g><path d="m373.807 180.565-5.003-11.493c-7.862-18.06-24.855-30.474-44.45-32.472l-17.76-1.811c-12.23-1.247-24.282 3.653-32.172 13.081-9.601 11.473-27.241 11.473-36.843 0-7.89-9.428-19.942-14.328-32.172-13.081l-17.761 1.811c-19.595 1.998-36.589 14.412-44.45 32.472l-5.003 11.493c-8.04 18.469-5.238 39.867 7.285 55.644l25.077 31.594c8.225 10.362 12.137 23.496 10.923 36.67l-4.085 44.318c-.462 5.017.896 10.033 3.828 14.13l7.107 9.934c7.086 9.904 21.089 11.711 30.457 3.932l5.636-4.68c4.156-3.452 6.821-8.374 7.438-13.741l5.122-44.55c1.111-9.664 9.292-16.958 19.02-16.958 9.727 0 17.909 7.295 19.02 16.958l5.122 44.55c.617 5.367 3.281 10.289 7.438 13.741l5.636 4.68c9.369 7.78 23.371 5.972 30.457-3.932l7.107-9.934c2.932-4.097 4.29-9.113 3.828-14.13l-4.085-44.318c-1.214-13.173 2.698-26.308 10.922-36.67l25.077-31.594c12.522-15.777 15.323-37.175 7.284-55.644z" fill="#fff"/><path d="m366.52 236.21-25.07 31.59c-8.23 10.37-12.14 23.5-10.93 36.67l4.09 44.32c.46 5.02-.9 10.03-3.83 14.13l-7.11 9.93c-7.08 9.91-21.09 11.72-30.45 3.94l-5.64-4.68c-4.16-3.46-6.82-8.38-7.44-13.74l-5.12-44.55c-.56-4.84-2.88-9.08-6.28-12.11s-7.88-4.85-12.74-4.85v-140.39c6.81 0 13.62-2.87 18.42-8.6 7.89-9.43 19.94-14.33 32.17-13.08l17.76 1.81c19.6 2 36.59 14.41 44.45 32.47l5.01 11.49c8.04 18.47 5.24 39.87-7.29 55.65z" fill="#d1fefb"/><g><path d="m91.06 194.466c25.59-68.736 91.058-114.466 164.94-114.466 76.078 0 143.238 48.486 167.119 120.653l28.481-9.426c-13.494-40.776-39.01-75.83-73.79-101.37-35.506-26.075-77.628-39.857-121.81-39.857s-86.304 13.782-121.811 39.857c-32.903 24.162-57.508 56.841-71.493 94.823l-19.363-6.68 12 73 56.333-49.425z" fill="#fff16b"/><g><path d="m451.6 191.23-28.48 9.42c-23.88-72.16-91.04-120.65-167.12-120.65v-30c44.18 0 86.3 13.78 121.81 39.86 34.78 25.54 60.3 60.59 73.79 101.37z" fill="#8ee26b"/></g><path d="m468.527 334.893-12-73-56.333 49.425 20.435 7.05c-25.808 68.272-91.046 113.632-164.629 113.632-76.078 0-143.238-48.486-167.119-120.653l-28.481 9.426c13.494 40.776 39.01 75.83 73.79 101.37 35.506 26.075 77.628 39.857 121.81 39.857s86.304-13.782 121.811-39.857c32.662-23.985 57.152-56.361 71.189-93.986z" fill="#fff16b"/></g><path d="m468.53 334.89-19.53-6.73c-14.04 37.62-38.53 70-71.19 93.98-35.51 26.08-77.63 39.86-121.81 39.86v-30c73.58 0 138.82-45.36 164.63-113.63l-20.44-7.05 56.34-49.43z" fill="#8ee26b"/></g></g></svg>